<svg version="1.1" xmlns="http://www.w3.org/2000/svg" viewBox="0 0 667.6216216216217 409" width="667.6216216216217" height="409">
  <!-- svg-source:excalidraw -->
  
  <defs>
    <style class="style-fonts">
      @font-face {
        font-family: "Virgil";
        src: url("https://excalidraw.com/Virgil.woff2");
      }
      @font-face {
        font-family: "Cascadia";
        src: url("https://excalidraw.com/Cascadia.woff2");
      }
    </style>
    
  </defs>
  <rect x="0" y="0" width="667.6216216216217" height="409" fill="#ffffff"></rect><g stroke-linecap="round" transform="translate(10 10) rotate(0 115.5 136)"><path d="M32 0 C66.79 -2.61, 105.35 -2.62, 199 0 M32 0 C93.49 1.69, 155.83 1.51, 199 0 M199 0 C220.96 -0.09, 230.15 9.45, 231 32 M199 0 C221.08 0.93, 229.61 10.25, 231 32 M231 32 C228.09 115.36, 227.95 197.61, 231 240 M231 32 C230.84 77.44, 230.08 122.58, 231 240 M231 240 C229.96 262.71, 218.71 272.49, 199 272 M231 240 C230.49 261.25, 220.31 272.3, 199 272 M199 272 C131.74 274.23, 68.3 272.17, 32 272 M199 272 C141.85 273.29, 86.52 272.68, 32 272 M32 272 C8.99 271.5, -0.7 261.78, 0 240 M32 272 C8.59 270.23, 1.14 260.54, 0 240 M0 240 C1.87 193.27, 1.43 145.94, 0 32 M0 240 C-1.69 170.13, -1.29 101.41, 0 32 M0 32 C-1.92 11.54, 10.66 1.53, 32 0 M0 32 C-1.26 9.5, 10.64 0.6, 32 0" stroke="#f08c00" stroke-width="1" fill="none"></path></g><g transform="translate(102.32002258300781 33.5) rotate(0 23.179977416992188 112.5)"><text x="23.179977416992188" y="0" font-family="Virgil, Segoe UI Emoji" font-size="20px" fill="#f08c00" text-anchor="middle" style="white-space: pre;" direction="ltr" dominant-baseline="text-before-edge">Next</text><text x="23.179977416992188" y="25" font-family="Virgil, Segoe UI Emoji" font-size="20px" fill="#f08c00" text-anchor="middle" style="white-space: pre;" direction="ltr" dominant-baseline="text-before-edge"></text><text x="23.179977416992188" y="50" font-family="Virgil, Segoe UI Emoji" font-size="20px" fill="#f08c00" text-anchor="middle" style="white-space: pre;" direction="ltr" dominant-baseline="text-before-edge"></text><text x="23.179977416992188" y="75" font-family="Virgil, Segoe UI Emoji" font-size="20px" fill="#f08c00" text-anchor="middle" style="white-space: pre;" direction="ltr" dominant-baseline="text-before-edge"></text><text x="23.179977416992188" y="100" font-family="Virgil, Segoe UI Emoji" font-size="20px" fill="#f08c00" text-anchor="middle" style="white-space: pre;" direction="ltr" dominant-baseline="text-before-edge"></text><text x="23.179977416992188" y="125" font-family="Virgil, Segoe UI Emoji" font-size="20px" fill="#f08c00" text-anchor="middle" style="white-space: pre;" direction="ltr" dominant-baseline="text-before-edge"></text><text x="23.179977416992188" y="150" font-family="Virgil, Segoe UI Emoji" font-size="20px" fill="#f08c00" text-anchor="middle" style="white-space: pre;" direction="ltr" dominant-baseline="text-before-edge"></text><text x="23.179977416992188" y="175" font-family="Virgil, Segoe UI Emoji" font-size="20px" fill="#f08c00" text-anchor="middle" style="white-space: pre;" direction="ltr" dominant-baseline="text-before-edge"></text><text x="23.179977416992188" y="200" font-family="Virgil, Segoe UI Emoji" font-size="20px" fill="#f08c00" text-anchor="middle" style="white-space: pre;" direction="ltr" dominant-baseline="text-before-edge"></text></g><g stroke-linecap="round" transform="translate(449.5 29) rotate(0 104.06081081081084 100.00649350649348)"><path d="M32 0 C87.76 -0.3, 141.34 1.1, 176.12 0 M32 0 C64.45 0.9, 98.07 1.8, 176.12 0 M176.12 0 C195.68 -0.39, 209.14 8.76, 208.12 32 M176.12 0 C198.37 1.49, 209.96 12.89, 208.12 32 M208.12 32 C208.02 60.89, 208.73 88.24, 208.12 168.01 M208.12 32 C208.82 80.43, 209.07 130.1, 208.12 168.01 M208.12 168.01 C206.78 189.06, 196.96 201.72, 176.12 200.01 M208.12 168.01 C209.38 187.57, 198.2 197.95, 176.12 200.01 M176.12 200.01 C132.94 198.87, 84.95 198.75, 32 200.01 M176.12 200.01 C125.96 199.62, 75.41 200.55, 32 200.01 M32 200.01 C11.13 198.7, -1.81 190.93, 0 168.01 M32 200.01 C11.69 199.67, -0.39 188.34, 0 168.01 M0 168.01 C-1.64 137.64, 0.51 104.25, 0 32 M0 168.01 C1.01 131.16, 0.99 94.18, 0 32 M0 32 C-1.47 9.59, 11.72 0, 32 0 M0 32 C-1.36 9.09, 10.09 -1.09, 32 0" stroke="#f08c00" stroke-width="1" fill="none"></path></g><g transform="translate(497.11123501237716 93.86907686907671) rotate(0 56.431236267089844 33.78597753597751)"><text x="0" y="0" font-family="Virgil, Segoe UI Emoji" font-size="27.02878202878203px" fill="#f08c00" text-anchor="start" style="white-space: pre;" direction="ltr" dominant-baseline="text-before-edge">GraphQL</text><text x="0" y="33.78597753597754" font-family="Virgil, Segoe UI Emoji" font-size="27.02878202878203px" fill="#f08c00" text-anchor="start" style="white-space: pre;" direction="ltr" dominant-baseline="text-before-edge">server</text></g><g transform="translate(41 100) rotate(0 90.51991271972656 12.5)"><text x="0" y="0" font-family="Virgil, Segoe UI Emoji" font-size="20px" fill="#f08c00" text-anchor="start" style="white-space: pre;" direction="ltr" dominant-baseline="text-before-edge">Server Components</text></g><g transform="translate(59 152) rotate(0 70.9099349975586 12.5)"><text x="0" y="0" font-family="Virgil, Segoe UI Emoji" font-size="20px" fill="#f08c00" text-anchor="start" style="white-space: pre;" direction="ltr" dominant-baseline="text-before-edge">Server Actions</text></g><g mask="url(#mask-ak9fmCsZvYg7Tn2yZe6_G)" stroke-linecap="round"><g transform="translate(235 115.44960961919492) rotate(0 95.71158578191313 -4.895522241324443)"><path d="M-0.02 -0.16 C31.94 -1.75, 159.72 -8.06, 191.66 -9.69 M-0.23 0.13 C31.72 -1.49, 159.65 -8.26, 191.6 -9.93" stroke="#f08c00" stroke-width="1" fill="none"></path></g><g transform="translate(235 115.44960961919492) rotate(0 95.71158578191313 -4.895522241324443)"><path d="M163.99 1.8 C170.82 -0.91, 178.48 -4.08, 191.6 -9.93 M163.99 1.8 C170.04 -0.63, 175.78 -3.28, 191.6 -9.93" stroke="#f08c00" stroke-width="1" fill="none"></path></g><g transform="translate(235 115.44960961919492) rotate(0 95.71158578191313 -4.895522241324443)"><path d="M162.91 -18.69 C169.99 -16.12, 177.93 -14.01, 191.6 -9.93 M162.91 -18.69 C169.17 -16.75, 175.14 -15.03, 191.6 -9.93" stroke="#f08c00" stroke-width="1" fill="none"></path></g></g><mask id="mask-ak9fmCsZvYg7Tn2yZe6_G"><rect x="0" y="0" fill="#fff" width="526.5" height="225.27097310202817"></rect><rect x="305.1500244140625" y="98.0389278777784" fill="#000" width="51.199951171875" height="25" opacity="1"></rect></mask><g transform="translate(305.1500244140625 98.0389278777784) rotate(0 25.56156136785063 12.515159500092068)"><text x="25.5999755859375" y="0" font-family="Virgil, Segoe UI Emoji" font-size="20px" fill="#f08c00" text-anchor="middle" style="white-space: pre;" direction="ltr" dominant-baseline="text-before-edge">query</text></g><g mask="url(#mask-uxVxqCPu5mDeNDEcvD7yp)" stroke-linecap="round"><g transform="translate(210 162.42956802357753) rotate(0 112.31343764287436 -1.6263545358499414)"><path d="M0.15 -0.1 C37.6 -0.66, 187.18 -2.88, 224.59 -3.44 M0.04 0.18 C37.49 -0.35, 187.09 -2.71, 224.52 -3.3" stroke="#f08c00" stroke-width="1" fill="none"></path></g><g transform="translate(210 162.42956802357753) rotate(0 112.31343764287436 -1.6263545358499414)"><path d="M196.49 7.41 C202.14 5.31, 207.96 3.18, 224.52 -3.3 M196.49 7.41 C202.61 4.98, 208.45 2.83, 224.52 -3.3" stroke="#f08c00" stroke-width="1" fill="none"></path></g><g transform="translate(210 162.42956802357753) rotate(0 112.31343764287436 -1.6263545358499414)"><path d="M196.17 -13.11 C201.87 -10.93, 207.75 -8.79, 224.52 -3.3 M196.17 -13.11 C202.35 -11.12, 208.26 -8.85, 224.52 -3.3" stroke="#f08c00" stroke-width="1" fill="none"></path></g></g><mask id="mask-uxVxqCPu5mDeNDEcvD7yp"><rect x="0" y="0" fill="#fff" width="534.5" height="265.7545604869133"></rect><rect x="279.8700408935547" y="148.26707179190953" fill="#000" width="84.75991821289062" height="25" opacity="1"></rect></mask><g transform="translate(279.8700408935547 148.26707179190953) rotate(0 42.443396749319675 12.53614169581806)"><text x="42.37995910644531" y="0" font-family="Virgil, Segoe UI Emoji" font-size="20px" fill="#f08c00" text-anchor="middle" style="white-space: pre;" direction="ltr" dominant-baseline="text-before-edge">mutation</text></g><g stroke-linecap="round" transform="translate(470 317) rotate(0 79 41)"><path d="M20.5 0 C67.77 2.25, 111.72 -0.92, 137.5 0 M20.5 0 C57.42 -0.67, 93.72 1.01, 137.5 0 M137.5 0 C149.48 -1.14, 157.18 8.13, 158 20.5 M137.5 0 C150.82 2.2, 159.2 4.63, 158 20.5 M158 20.5 C156.79 33.45, 157.05 48.92, 158 61.5 M158 20.5 C158.46 34.08, 157.66 47.17, 158 61.5 M158 61.5 C158.12 75.28, 150.58 80.76, 137.5 82 M158 61.5 C159.49 74.36, 153.06 79.85, 137.5 82 M137.5 82 C114.01 80.54, 89.61 82.72, 20.5 82 M137.5 82 C112.36 82.05, 87.11 82.08, 20.5 82 M20.5 82 C7.15 82.7, -1.36 76.05, 0 61.5 M20.5 82 C9.11 81.7, 1.44 76.84, 0 61.5 M0 61.5 C0.97 47.31, -1.2 36.72, 0 20.5 M0 61.5 C0.14 45.16, 0.5 29.68, 0 20.5 M0 20.5 C1.08 8.04, 7.46 0.17, 20.5 0 M0 20.5 C0.62 8.32, 8.07 -0.95, 20.5 0" stroke="#f08c00" stroke-width="1" fill="none"></path></g><g transform="translate(533.9300079345703 345.5) rotate(0 15.069992065429688 12.5)"><text x="15.069992065429688" y="0" font-family="Virgil, Segoe UI Emoji" font-size="20px" fill="#f08c00" text-anchor="middle" style="white-space: pre;" direction="ltr" dominant-baseline="text-before-edge">DB</text></g><g stroke-linecap="round"><g transform="translate(552.7409089252595 237.01298701298674) rotate(0 0.3133930134860634 39.51345968011242)"><path d="M0.02 0.08 C0.15 13.25, 0.67 65.88, 0.78 79.03 M-0.16 -0.01 C-0.02 13.11, 0.58 65.6, 0.71 78.8" stroke="#f08c00" stroke-width="1" fill="none"></path></g><g transform="translate(552.7409089252595 237.01298701298674) rotate(0 0.3133930134860634 39.51345968011242)"><path d="M10.55 28.17 C7.94 20.99, 5.11 13.48, 0.02 0.08 M10.55 28.17 C7.02 19.01, 3.71 9.7, 0.02 0.08" stroke="#f08c00" stroke-width="1" fill="none"></path></g><g transform="translate(552.7409089252595 237.01298701298674) rotate(0 0.3133930134860634 39.51345968011242)"><path d="M-9.97 28.37 C-7.21 21.13, -4.66 13.57, 0.02 0.08 M-9.97 28.37 C-6.79 19.13, -3.39 9.76, 0.02 0.08" stroke="#f08c00" stroke-width="1" fill="none"></path></g><g transform="translate(552.7409089252595 237.01298701298674) rotate(0 0.3133930134860634 39.51345968011242)"><path d="M-9.85 50.72 C-6.92 58.25, -4.22 65.46, 0.71 78.8 M-9.85 50.72 C-6.43 59.91, -2.84 68.96, 0.71 78.8" stroke="#f08c00" stroke-width="1" fill="none"></path></g><g transform="translate(552.7409089252595 237.01298701298674) rotate(0 0.3133930134860634 39.51345968011242)"><path d="M10.67 50.5 C8.23 58.09, 5.55 65.35, 0.71 78.8 M10.67 50.5 C7.38 59.77, 4.26 68.9, 0.71 78.8" stroke="#f08c00" stroke-width="1" fill="none"></path></g></g><mask></mask></svg>